<svg xmlns="http://www.w3.org/2000/svg" viewBox="0 0 850 830.77"><defs><style>.cls-1{fill:#00006f;}</style></defs><g id="Graphic_Elements" data-name="Graphic Elements"><path class="cls-1" d="M733.09,183.5c51.74,0,93.68,78.71,93.68,145.4s-41.94,120.74-93.68,120.74-93.68-54.06-93.68-120.74S681.35,183.5,733.09,183.5Z" transform="translate(-175 -183.5)"/><path class="cls-1" d="M466.91,183.5c51.74,0,93.68,78.71,93.68,145.4s-41.94,120.74-93.68,120.74-93.68-54.06-93.68-120.74S415.17,183.5,466.91,183.5Z" transform="translate(-175 -183.5)"/><path class="cls-1" d="M186.35,535.2c-22-55-12.35-134.14,31.51-151.66s105.35,33.2,127.33,88.21,4.23,113.81-39.64,131.33S208.32,590.21,186.35,535.2Z" transform="translate(-175 -183.5)"/><path class="cls-1" d="M1013.65,535.2c-22,55-75.34,85.4-119.2,67.88s-61.61-76.32-39.64-131.33S938.28,366,982.14,383.54,1035.62,480.19,1013.65,535.2Z" transform="translate(-175 -183.5)"/><path class="cls-1" d="M410.32,1006.16c17.79-8.52,33.12-23.31,50.51-31.7,42.36-26.65,89.3-43.76,138.7-43.76,48.78,0,95,16.56,136.78,42.45,18.59,8.08,34.61,24,53.37,33C831,1026,883.89,1007.7,911.8,971.1s33.41-87,23.36-132-34-85.68-60.49-123.34C812.59,627.51,713.18,538.43,600,538.43c-112.71,0-212.58,89.06-274.67,177.29-26.49,37.66-50.44,78.29-60.49,123.34s-4.55,95.44,23.36,132S369,1026,410.32,1006.16Zm80.49-283.87c5.24-21.14,21.92-39.71,42.38-42.3,23.66-3,51.21,13.65,66.81,32.77C615.6,693.64,643.15,677,666.81,680c20.46,2.59,37.14,21.16,42.38,42.3,5.46,22.06-.05,43.23-10.6,62.5-12.77,23.34-32.92,43.89-49.94,59.88a325.75,325.75,0,0,1-28.77,24.08l-.06,0a33.49,33.49,0,0,1-39.64,0l-.06,0a325.75,325.75,0,0,1-28.77-24.08c-17-16-37.17-36.54-49.94-59.88C490.86,765.52,485.35,744.35,490.81,722.29Z" transform="translate(-175 -183.5)"/></g></svg>