<svg id="Layer_1" data-name="Layer 1" xmlns="http://www.w3.org/2000/svg" viewBox="0 0 1904.62 1979.41"><defs><style>.cls-1{fill:#02daff;}.cls-2{fill:#ff9331;}.cls-3{opacity:0.6;}.cls-4{fill:#fff;}.cls-5{fill:#f2d4d4;}.cls-6{fill:#000072;}.cls-7{fill:#42f4d2;}.cls-8{fill:#ffb012;}.cls-9{opacity:0.2;}.cls-10{fill:#ae531e;}.cls-11{fill:#ff48a0;}.cls-12{fill:#d5b3f5;}.cls-13{fill:#ff0068;}.cls-14{fill:#fa509c;}</style></defs><path class="cls-1" d="M1932.9,966c0,163.08-41,316.56-113.23,450.75-138.47,257.26-391.8,443.52-691.36,490.16h0a962.32,962.32,0,0,1-249.3,6c-285.14-30.24-532.7-186.3-686.08-411.62C89,1348.77,28.29,1164.5,28.29,966c0-526,426.34-952.3,952.3-952.3S1932.9,440.08,1932.9,966Z" transform="translate(-28.29 -13.74)"/><path class="cls-2" d="M1855,1340.56c-36.94,82.09-100.23,180.24-140,228.34a955.29,955.29,0,0,1-337.34,259.63c-2,1-4,1.88-6,2.78-.63.28-1.22.56-1.85.8a939.68,939.68,0,0,1-190.32,62.14c-4.45,1-9,1.88-13.45,2.78-5.14,1-10.25,2-15.43,2.92-7.33,1.32-14.74,2.54-22.14,3.72h0c-3.1-.17-150.08-8.58-212-94.57-13.59-18.91-24.44-49.46-30.31-87.62-18.07-117.3,10.49-306.34,148-448.87a542.53,542.53,0,0,1,80.25-68.3l465.7-80.07s41.81,1.87,93.63,31.21C1736.29,1190.86,1791.2,1213.73,1855,1340.56Z" transform="translate(-28.29 -13.74)"/><g class="cls-3"><path class="cls-4" d="M1855,1339.15c-2.64,5.91-5.45,11.89-8.37,17.93-55.47-94.67-105.24-116.29-161.2-147.95-51.82-29.3-93.63-31.18-93.63-31.18L1126.06,1258a542.11,542.11,0,0,0-80.26,68.3c-133.7,138.57-164.43,321.14-149.38,439-34.33-108-19.36-331.36,137.67-494.09a541.88,541.88,0,0,1,80.25-68.29l465.7-80.08s41.81,1.88,93.59,31.18C1736.3,1189.46,1791.21,1212.33,1855,1339.15Z" transform="translate(-28.29 -13.74)"/></g><path class="cls-5" d="M1715,1568.9c-137.14,166-329.52,284.79-549,328.13a404.35,404.35,0,0,1-27.25-147.12c0-197.72,138.51-358,309.33-358C1561.82,1391.93,1661.25,1463,1715,1568.9Z" transform="translate(-28.29 -13.74)"/><path class="cls-6" d="M1128.41,1917.57c-.26,0-.55,0-.81,0-6.4-.36-157.34-9.84-222.51-100.32C872.55,1772,859.37,1677.09,872.31,1581c16.21-120.44,70.11-233.38,151.77-318a557.9,557.9,0,0,1,82.3-70,14.07,14.07,0,0,1,5.6-2.3l465.69-80.07a13.77,13.77,0,0,1,5.82.23c1.46.38,36.54,9.47,92.3,30.58,53,20.07,129.3,69.83,191.59,192.93a13.9,13.9,0,0,1,.64,11.07c-27.47,74.79-99.76,180.93-142.32,232.41-141.89,171.77-339.71,290-557,332.91-12.22,2.43-24.69,4.63-38.11,6.74A14.28,14.28,0,0,1,1128.41,1917.57Zm-8.64-700.08a530,530,0,0,0-75.68,64.77c-77.58,80.41-128.8,187.81-144.22,302.42-13.85,102.88,4.69,184.24,27.78,216.3,55.1,76.5,184.26,87.64,200.1,88.72,12.48-2,24.12-4,35.53-6.3,211-41.68,403.17-156.51,541-323.35,39.06-47.26,107.88-147.92,135.51-218.65-57.69-111.16-126.19-156-173.84-174.05-45.42-17.2-77.26-26.34-86.57-28.89Z" transform="translate(-28.29 -13.74)"/><path class="cls-7" d="M1670.86,1170.7C1610.79,1260.1,1463.18,1345,1309,1345c-107.43,0-203.2-16.76-275-72.39a542.54,542.54,0,0,1,80.24-68.32l465.71-80S1621.92,1136.86,1670.86,1170.7Z" transform="translate(-28.29 -13.74)"/><path class="cls-6" d="M1279.87,1359.91c-93.73,0-192.8-29.2-254.23-76.25a13.91,13.91,0,0,1-1.56-20.69,559.15,559.15,0,0,1,82.29-70.07,14.07,14.07,0,0,1,5.6-2.3l465.71-80a13.34,13.34,0,0,1,1.67-.19c2.15-.1,53.45-2.21,105.68,33.9a13.91,13.91,0,0,1,4,18.57c-67.14,112.42-205.3,183.88-379,196.05C1300.06,1359.57,1290,1359.91,1279.87,1359.91Zm-224.34-89.12c55.32,36.43,150.46,67.49,252.54,60.35,158.46-11.09,285-73.22,349.92-171.13-37.28-21.6-71.28-22-76.56-21.89l-461.67,79.36A533.36,533.36,0,0,0,1055.53,1270.79Z" transform="translate(-28.29 -13.74)"/><circle class="cls-8" cx="1371.6" cy="1381.5" r="62.56" transform="translate(-316.36 2385.27) rotate(-76.72)"/><g class="cls-3"><path class="cls-4" d="M1434.14,1379.28a62.57,62.57,0,0,0-118.38,28.29c0,.73,0,1.46,0,2.19a62.56,62.56,0,1,1,118.34-30.48Z" transform="translate(-28.29 -13.74)"/></g><g class="cls-9"><path class="cls-6" d="M1434.16,1381.5a62.56,62.56,0,0,1-125.12,0,61.26,61.26,0,0,1,.8-9.91,62.55,62.55,0,0,0,116.22-20.88A61.91,61.91,0,0,1,1434.16,1381.5Z" transform="translate(-28.29 -13.74)"/></g><path class="cls-6" d="M1371.6,1458a76.46,76.46,0,1,1,76.46-76.46A76.56,76.56,0,0,1,1371.6,1458Zm0-125.12a48.66,48.66,0,1,0,48.65,48.66A48.72,48.72,0,0,0,1371.6,1332.84Z" transform="translate(-28.29 -13.74)"/><path class="cls-2" d="M1351.44,1946.77c-51,49.87-156.75,43.2-200.89-46.82a190.43,190.43,0,0,1-16.65-53.9.13.13,0,0,1,0-.07c-.87-5.22-1.57-10.57-2.09-16.13l-128.59-73s6-1.91,16.54-4.72c63.85-17.07,293.65-67.57,349.33,72.29.9,2.22,1.74,4.52,2.54,6.84v0C1388.94,1881.91,1377.19,1921.57,1351.44,1946.77Z" transform="translate(-28.29 -13.74)"/><g class="cls-9"><path class="cls-6" d="M1150.55,1900c-7.33,1.32-14.74,2.54-22.14,3.72h0c-3.1-.17-150.08-8.58-212-94.57-13.59-18.91-24.44-49.46-30.31-87.62a45.55,45.55,0,0,1,1.6-6.32s60.09,149.9,246.21,130.82a.13.13,0,0,0,0,.07,255.49,255.49,0,0,0,45.53,48.2c28,22.77,67.12,43.9,112.58,38.62,76.22-8.83,79-77.47,77.74-100.76-.24-4.8-.69-7.68-.69-7.68l8.58,4.1c-2,1-4,1.88-6,2.78C1423.24,1982.05,1217,2035.5,1150.55,1900Z" transform="translate(-28.29 -13.74)"/></g><g class="cls-3"><path class="cls-4" d="M1351.44,1946.77c25.47-79.8-5.16-133.45-65.74-165.33-99.79-52.52-266-29.3-266-29.3,63.85-17.07,293.65-67.57,349.33,72.29.9,2.22,1.74,4.52,2.54,6.84v0C1388.94,1881.91,1377.19,1921.57,1351.44,1946.77Z" transform="translate(-28.29 -13.74)"/></g><path class="cls-6" d="M1002.54,1754.83c16.19-8.14,33-14.38,50.18-19.89,8.58-2.68,17.23-5.25,26-7.39s17.53-4.25,26.41-6a414.74,414.74,0,0,1,53.93-6.88,365.83,365.83,0,0,1,54.85,1.18c18.31,1.87,36.67,4.72,54.77,9.64s36,11.79,52.46,21.93a148.25,148.25,0,0,1,43,39.2,153.37,153.37,0,0,1,24.3,52.54c4.85,18.55,7,38.55,3.59,58.46a109.09,109.09,0,0,1-25.68,54.54c-13.47,15.43-31.22,26.32-50,33a140.35,140.35,0,0,1-58.63,7.41A141.15,141.15,0,0,1,1157,1937c-11.79-15.52-20.8-32.93-25.61-51.29-1-4.63-2-9.25-2.83-13.87-.67-4.64-.85-9.36-1.13-14l-.23-7c.16-2.35.31-4.67.54-7,.47-4.65,1-9.26,1.92-13.83a2.22,2.22,0,0,1,4.19-.52l.05.12c7.9,16.79,13.19,32.9,20.67,47.83,7.28,14.85,14.82,29.18,25.09,41.37a122,122,0,0,0,36.3,29.59,118.22,118.22,0,0,0,44.54,13.21,113.47,113.47,0,0,0,46-5c14.57-4.85,28.15-12.79,38.25-23.89a79.38,79.38,0,0,0,19.55-39.85c2.65-15,1.29-31-2.78-46.59a125.52,125.52,0,0,0-19.89-43.27,120.78,120.78,0,0,0-35-31.84c-27.56-16.76-61.19-24.55-95-26.45-17-.93-34.07-.78-51.24-.12s-34.41,1.58-51.73,3c-34.66,2.64-69.47,7-104.83,11.31h-.06a2.16,2.16,0,0,1-1.23-4.07Z" transform="translate(-28.29 -13.74)"/><path class="cls-2" d="M1768,1499.11c-5.94,10-23.35,37.26-54.46,71.64,0,0,57.8,213.92-84.7,241.72-20.61,4-38.34,1.22-53.25-6.74-54-28.71-70.76-125-52.79-208.33,1.81-8.34,4-16.58,6.46-24.6v-.07l0-.07c13.21-42.34,36.08-78.76,68.26-97.32,81.09-46.78,155.78,6.19,170.3,17.59,1.67,1.28,2.54,2,2.54,2S1769.59,1496.4,1768,1499.11Z" transform="translate(-28.29 -13.74)"/><g class="cls-3"><path class="cls-4" d="M1770.35,1495s-.76,1.42-2.4,4.13c-34.72-8.34-103-35.69-154.91-.58-50.9,34.42-117.33,192.89-37.5,307.2-54-28.71-70.76-125-52.79-208.33,1.81-8.34,4-16.58,6.46-24.6v-.07l0-.07c13.21-42.34,36.08-78.76,68.26-97.32,81.09-46.78,155.78,6.19,170.3,17.59C1769.48,1494.21,1770.35,1495,1770.35,1495Z" transform="translate(-28.29 -13.74)"/></g><g class="cls-9"><path class="cls-6" d="M1713.49,1570.75s57.8,213.92-84.7,241.72c-95.37,18.6-128.94-108.75-106-215.07l6.46-24.53c-1.63,7.16-47.65,213.4,78.24,191.92,128.08-21.86,84.91-234.33,84.91-234.33,18.73.87,51.16-19.77,75.45-37.53,1.67,1.28,2.54,2,2.54,2S1753,1527.13,1713.49,1570.75Z" transform="translate(-28.29 -13.74)"/></g><path class="cls-6" d="M1610.72,1828.19c-42,0-75.69-26.85-94.12-76.12-34.3-91.68-9-240.93,74-288.77,97.83-56.44,188,20.42,188.92,21.2a13.91,13.91,0,0,1,3.11,17.1c-.71,1.31-17.17,31.42-53.86,72.94,6.56,28.45,25.94,130.4-15.36,196.71-18.3,29.37-45.86,47.83-81.92,54.87A108.63,108.63,0,0,1,1610.72,1828.19Zm56.35-358c-19.51,0-40.79,4.62-62.61,17.21-68.42,39.47-91.56,175.45-61.82,254.95,11.58,31,35.45,65.87,83.49,56.5,28.57-5.58,49.39-19.41,63.63-42.28,41-65.88,10.61-181,10.3-182.18a13.91,13.91,0,0,1,3.11-13c24.94-27.53,40.86-50.46,48.83-62.93C1737.05,1488.15,1705.53,1470.17,1667.07,1470.17Z" transform="translate(-28.29 -13.74)"/><path class="cls-6" d="M1699.14,1577.41c-.68-5.17-1.6-10.67-2.55-16s-2-10.76-3.17-16.1c-2.36-10.7-5-21.34-9-31.73,7.92,7.88,15,16.86,21.68,26,3.36,4.57,6.6,9.22,9.8,13.92s6.29,9.39,9.39,14.45l.13.21a14.24,14.24,0,1,1-24.28,14.89A14.54,14.54,0,0,1,1699.14,1577.41Z" transform="translate(-28.29 -13.74)"/><path class="cls-10" d="M1865.23,796c0,2.78,0,5.63-.1,8.51-3.48,135.55-121.65,208.54-205.06,225.92L1378.55,443.09V432.67c18.8-23.95,52.62-40.08,88.8-46.23,37.36-6.39,77.26-2.19,105.83,14.95,69.51,41.7,73,118.17,132.07,156.4C1746.54,584.48,1864.36,651.49,1865.23,796Z" transform="translate(-28.29 -13.74)"/><g class="cls-3"><path class="cls-4" d="M1865.23,798.87c0,2.78,0,5.63-.1,8.52-2.33,91-56.34,153.79-116.85,190.49,49.18-37.88,88.8-95,90.78-172.63.07-2.88.11-5.73.11-8.51-.87-144.55-118.69-211.56-160-238.26-59.09-38.23-62.56-114.69-132.08-156.4-28.57-17.13-68.47-21.34-105.83-14.94a178.8,178.8,0,0,0-52.17,17.1c19.54-17.76,48.07-29.82,78.24-35,37.36-6.39,77.26-2.19,105.83,15,69.51,41.71,73,118.17,132.07,156.4C1746.54,587.31,1864.36,654.32,1865.23,798.87Z" transform="translate(-28.29 -13.74)"/></g><g class="cls-9"><path class="cls-6" d="M1865.23,796c0,2.78,0,5.63-.1,8.51-3.48,135.55-121.65,208.54-205.06,225.92L1378.55,443.09V432.67c18.8-23.95,52.62-40.08,88.8-46.23a430.12,430.12,0,0,1,66.94,46.33c57.83,48.42,95.4,116.19,143.58,174.23,20.74,25,43.68,48.45,59.84,76.57,18.91,32.91,29,72.74,58.67,96.45C1815.46,795.27,1841.32,800.42,1865.23,796Z" transform="translate(-28.29 -13.74)"/></g><path class="cls-10" d="M1060.22,492.31l-54.74,649.06c-33.85,5.35-76.19,4.31-118-7-62.14-16.86-123.21-56.41-153.9-131.41-57-139.27,32.22-247,61.9-287.47,41.68-56.68,17.77-129.43,67.95-193.06,32.92-41.78,104.58-63,158.77-52.49a104.68,104.68,0,0,1,34.3,12.66Z" transform="translate(-28.29 -13.74)"/><g class="cls-9"><path class="cls-6" d="M1060.22,492.31l-54.74,649.06c-33.85,5.35-76.19,4.31-118-7a229.8,229.8,0,0,1-53.69-64.61c-29.3-52.38-38.58-114.62-31.94-174.3,4.86-43.83,17.86-86.3,30.79-128.46l19.29-62.77q11.84-38.62,23.74-77.29c6.18-20.16,12.44-40.49,22.55-59,18.39-33.64,48.7-59.54,82.17-78.27a363.88,363.88,0,0,1,41.81-19.71,104.68,104.68,0,0,1,34.3,12.66Z" transform="translate(-28.29 -13.74)"/></g><g class="cls-3"><path class="cls-4" d="M1060.21,489.06l-.59,7.19C1004.49,477.9,921.81,499,885.7,544.81c-50.19,63.64-26.31,136.38-68,193.07C788,778.3,698.85,886.08,755.85,1025.34a220.53,220.53,0,0,0,26.38,47.27,214.8,214.8,0,0,1-48.66-72.95c-57-139.23,32.22-247,61.9-287.43,41.67-56.72,17.8-129.43,68-193.11,40.6-51.5,140-71.73,193.07-39.83Z" transform="translate(-28.29 -13.74)"/></g><path class="cls-6" d="M1660.07,1044.37a13.92,13.92,0,0,1-12.54-7.89L1366,449.1a13.87,13.87,0,0,1-.35-11.22,13.89,13.89,0,0,1,2-13.8c42.91-54.62,150.26-72.09,212.71-34.61,39.61,23.76,59.7,58.38,77.42,88.92,15.34,26.43,29.83,51.4,55.06,67.73,2.13,1.38,4.48,2.87,7,4.48,48.8,31,163.08,103.78,159.22,254.31-1.65,64.27-28.28,122.06-77,167.12-38.21,35.33-88.91,61.59-139.11,72A14.48,14.48,0,0,1,1660.07,1044.37ZM1391.76,438.5l276,575.87c67.53-17.74,180.13-80.23,183.46-210.17,3.46-134.81-101.52-201.62-146.34-230.14-2.59-1.65-5-3.18-7.19-4.6-30.83-20-47.69-49-64-77.12-17.59-30.32-34.21-58.95-67.67-79C1517,383.91,1427.51,397.28,1391.76,438.5Z" transform="translate(-28.29 -13.74)"/><path class="cls-6" d="M964,1158.45c-38.11,0-77.24-7.32-112-21.34-61.55-24.84-107-69.42-131.31-128.92-57-139.36,24-247.9,58.6-294.26,1.79-2.4,3.45-4.62,5-6.67,17.79-24.22,22.48-52.7,27.44-82.86,5.72-34.84,12.22-74.33,40.82-110.61,45.09-57.2,151.65-79,211.15-43.13a13.9,13.9,0,0,1,6.73,12.21,13.87,13.87,0,0,1,3.65,10.61l-54.74,649.05a13.9,13.9,0,0,1-11.68,12.56A278.93,278.93,0,0,1,964,1158.45Zm29.28-677.36c-44.39,0-94.4,18.8-118.93,49.91-24.16,30.65-29.53,63.32-35.22,97.91-5.27,32.06-10.72,65.22-32.46,94.81-1.55,2.1-3.25,4.39-5.09,6.85-31.79,42.58-106.22,142.29-55.15,267.09,49.24,120.31,176.69,138.78,246.11,131.39l53.67-636.34C1031.49,484.78,1012.93,481.09,993.29,481.09Z" transform="translate(-28.29 -13.74)"/><path class="cls-2" d="M1755.65,934.89C1745.22,1216.41,1369.86,1279,1369.86,1279s-413.59,69.51-520.43-215.66C771.71,856,885.85,742.17,897.18,670.74s84.49-252.6,312.8-288.47c58.91-9.24,110.73-6.46,155.92,4C1507.25,419,1583.23,527.13,1606.2,576.9c26,56.34,123.49,116.37,145.42,272.35A487.8,487.8,0,0,1,1755.65,934.89Z" transform="translate(-28.29 -13.74)"/><path class="cls-10" d="M1751.62,849.25a300.18,300.18,0,0,1-184.52,63c-166.52,0-301.51-135-301.51-301.51A300.61,300.61,0,0,1,1365.9,386.27C1507.25,419,1583.23,527.13,1606.2,576.9,1632.23,633.24,1729.69,693.27,1751.62,849.25Z" transform="translate(-28.29 -13.74)"/><g class="cls-3"><path class="cls-4" d="M1755.65,927.69c0,1.19-.11,2.37-.18,3.52-.66-14.81-2-28.85-3.85-42.23-21.93-156-119.39-216-145.42-272.35-20.44-44.28-82.79-134.68-195.78-177.18a1.25,1.25,0,0,1-.07.31c-2.33,8.24-18.42,10.91-36,6-17.41-4.9-29.68-15.44-27.63-23.64-40.52-7.12-86-8.06-136.73-.1-228.31,35.87-301.5,217-312.8,288.47-7.92,50-66.31,120.85-73.86,230-9.34-136.38,64.82-220.11,73.86-277,11.3-71.42,84.49-252.6,312.8-288.47,58.91-9.25,110.73-6.47,155.92,4,141.35,32.78,217.33,140.87,240.3,190.64,26,56.34,123.49,116.36,145.42,272.35A487.73,487.73,0,0,1,1755.65,927.69Z" transform="translate(-28.29 -13.74)"/></g><g class="cls-9"><path class="cls-6" d="M1758.39,940.51C1748,1222,1372.6,1284.59,1372.6,1284.59S959,1354.11,852.17,1068.93c-27.95-74.58-31.07-137.07-23.08-189.83,2.68,34,10.53,71.14,25.82,112,106.84,285.17,520.44,215.66,520.44,215.66s345.82-57.62,382.8-311.2C1758.84,909.79,1759,924.77,1758.39,940.51Z" transform="translate(-28.29 -13.74)"/></g><path class="cls-6" d="M1262.3,1300.4a747.54,747.54,0,0,1-114.74-8.58c-158-24.73-265.6-102.06-311.15-223.63C777,909.58,826.86,801.8,859.88,730.48c11.22-24.23,20.91-45.16,23.57-61.91,14-88.34,99.75-264.74,324.38-300,56.6-8.89,110.83-7.48,161.2,4.18,172.23,39.94,242.36,182.26,249.79,198.36,7.18,15.54,21.34,32.54,37.72,52.22,39.27,47.16,93.06,111.76,108.84,224a504.06,504.06,0,0,1,4.16,88.08h0c-4.46,120.33-75,220.39-204.15,289.36-96.05,51.32-189.32,67.27-193.25,67.92C1369.36,1293.15,1325.15,1300.4,1262.3,1300.4Zm17.42-909.81a434.89,434.89,0,0,0-67.58,5.42c-208.82,32.8-288.35,195.47-301.23,276.91-3.26,20.57-13.71,43.13-25.8,69.25-32.93,71.12-78,168.54-22.67,316.26,42.42,113.23,139.8,182.5,289.42,205.92,113.21,17.71,214.68,1.08,215.7.91s93.28-16,185.35-65.35c121.19-64.94,184.72-154.28,188.85-265.54h0a477.56,477.56,0,0,0-3.91-83.2c-14.68-104.41-63.47-163-102.68-210.09-17.64-21.19-32.87-39.49-41.59-58.36-24.85-53.82-101.42-152.91-230.82-182.92A367.39,367.39,0,0,0,1279.72,390.59Zm475.93,544.3h0Z" transform="translate(-28.29 -13.74)"/><path class="cls-6" d="M1238.7,859.2l103.57-11.68A13.58,13.58,0,0,1,1354.81,869l-46.28,64.13a13.58,13.58,0,0,1-20.18,2.08l-57.3-52.45A13.58,13.58,0,0,1,1238.7,859.2Z" transform="translate(-28.29 -13.74)"/><path class="cls-6" d="M1298.69,903.56c6.66,14.63,8.07,31.59,5.31,47.94a104.36,104.36,0,0,1-20.26,45.56,115.78,115.78,0,0,1-38.79,32c-14.94,7.84-31.25,12.51-47.94,14.83a134.27,134.27,0,0,1-50-3.42,117,117,0,0,1-44.89-22.93c-3.13-2.86-6.26-5.69-9.31-8.61-2.81-3.15-5.57-6.35-8.23-9.6-2.4-3.47-4.95-6.81-7.15-10.38-2-3.69-4-7.36-5.73-11.17-6.5-15.35-8.77-32.52-4.57-48.38a2.49,2.49,0,0,1,4.58-.56l0,.05c7.56,13.86,14.42,25.74,22.36,36.56,2,2.68,4.14,5.23,6,7.9l6.42,7.45c2.3,2.33,4.76,4.49,7,6.82l7.48,6.24a115.2,115.2,0,0,0,34.23,18,95.65,95.65,0,0,0,38.81,4.17,92.22,92.22,0,0,0,36.9-12.3,117.93,117.93,0,0,0,29.28-25.41,141.93,141.93,0,0,0,20.86-33.43c5.63-12.33,9.62-25.74,12.92-40.82v0a2.44,2.44,0,0,1,4.6-.49Z" transform="translate(-28.29 -13.74)"/><path class="cls-6" d="M1525.61,878.19c6.72,14.86,8.12,32.11,5.21,48.72-.89,4.1-1.92,8.22-3,12.33-1.5,4-2.89,8-4.65,11.89-2,3.76-3.85,7.63-6,11.32-2.44,3.51-4.72,7.16-7.38,10.52a116.55,116.55,0,0,1-40,31.76,138,138,0,0,1-23.84,9.2c-4.12,1-8.26,2.38-12.34,2.92l-6.15,1-3.08.51c-1.53.16-3.11.28-4.67.36l1.27-.06c-1.18.08-2.59.19-3.58.22l-3,.1-6,.21c-1,0-2,.09-3,.08l-3.1-.18-6.19-.37a129.36,129.36,0,0,1-24.47-4.44,116.13,116.13,0,0,1-43.8-23.24c-3.15-2.72-6.07-5.69-9.08-8.54-2.78-3.1-5.36-6.35-8-9.52-2.37-3.41-4.76-6.78-6.95-10.27-2-3.64-3.82-7.32-5.53-11-6.28-15.15-8.4-32-4.27-47.64a2.49,2.49,0,0,1,3-1.76,2.45,2.45,0,0,1,1.54,1.2l0,0c7.43,13.63,14.2,25.33,22,36,2,2.61,4.06,5.16,5.91,7.8,2.21,2.4,4.19,4.94,6.29,7.36l6.89,6.73c2.46,2,4.8,4.23,7.31,6.2a116.31,116.31,0,0,0,33.45,18.11,99.78,99.78,0,0,0,18.66,4.35l4.79.49,2.4.25c.83,0,1.68,0,2.52,0h7.61l1.93-.08,1.19,0h.08a4.1,4.1,0,0,1,1-.07l2.54-.4,5.09-.78c3.48-.32,6.52-1.58,9.77-2.36a86.86,86.86,0,0,0,18.27-7.84c11.54-6.55,21.5-15.43,30.09-25.39,2.21-2.45,4.08-5.18,6.17-7.75s3.74-5.47,5.66-8.21l5-8.7c1.47-3,2.93-6.07,4.53-9.13,5.71-12.51,9.76-26.09,13.14-41.41v0a2.44,2.44,0,0,1,2.91-1.86A2.47,2.47,0,0,1,1525.61,878.19Z" transform="translate(-28.29 -13.74)"/><path class="cls-6" d="M1417.41,1004.89,1382,1176.44l-107.74,7-69.82-154.84a114.07,114.07,0,0,0,91.93-124.73A113.91,113.91,0,0,0,1417.41,1004.89Z" transform="translate(-28.29 -13.74)"/><path class="cls-6" d="M1274.28,1197.29a13.89,13.89,0,0,1-12.67-8.18l-69.83-154.84a13.9,13.9,0,0,1,10.08-19.37c51-9.72,86.46-57.79,80.72-109.47v-.07a13.9,13.9,0,1,1,27.63-3.09v.07A99.8,99.8,0,0,0,1416.45,991a13.9,13.9,0,0,1,14.57,16.67l-35.38,171.56a13.89,13.89,0,0,1-12.72,11.06l-107.74,7Zm-50.41-159.49L1283,1168.9l87.55-5.65,29.8-144.5a127.5,127.5,0,0,1-97.65-57.29A128.83,128.83,0,0,1,1223.87,1037.8Z" transform="translate(-28.29 -13.74)"/><path class="cls-11" d="M1338.13,1250.4h0a53.87,53.87,0,0,1-60.4-46.43l-9.47-72.37a53.88,53.88,0,0,1,46.43-60.4h0a53.87,53.87,0,0,1,60.41,46.43l9.46,72.37A53.86,53.86,0,0,1,1338.13,1250.4Z" transform="translate(-28.29 -13.74)"/><path class="cls-6" d="M1331,1264.77a67.78,67.78,0,0,1-67.06-59l-9.47-72.37a67.77,67.77,0,1,1,134.4-17.58l9.47,72.37a67.85,67.85,0,0,1-58.41,76h0A69,69,0,0,1,1331,1264.77Zm7.12-14.37h0Zm-16.42-165.76a40,40,0,0,0-39.66,45.16l9.47,72.37a40,40,0,0,0,44.81,34.45h0a40,40,0,0,0,34.45-44.82l-9.47-72.37A40,40,0,0,0,1321.71,1084.64Z" transform="translate(-28.29 -13.74)"/><path class="cls-6" d="M1243.8,1974.81c-.1-3,.07-6.74.26-10.14s.4-7,.67-10.44c.5-7,1.27-14,1.69-21.07s.75-14.24.75-21.47c.2-7.29-.25-14.54-.36-22.16v-.07a1.58,1.58,0,0,1,2.93-.87,106.33,106.33,0,0,1,10.09,20.84,137.26,137.26,0,0,1,6,22.48,123.71,123.71,0,0,1,2.33,23.18,94.78,94.78,0,0,1-.7,11.66,66.2,66.2,0,0,1-2.42,11.85,10.85,10.85,0,0,1-21.21-2.77Z" transform="translate(-28.29 -13.74)"/><path class="cls-6" d="M1311.7,1965.35a93,93,0,0,1-.37-9.51c-.08-3.28,0-6.56.07-9.87l.7-20c.15-6.73.26-13.53.11-20.4,0-6.92-.39-13.83-.42-21.07v0a1.59,1.59,0,0,1,1.59-1.61,1.64,1.64,0,0,1,1.35.72c8,12.23,13.3,26,16.71,40.28a118.7,118.7,0,0,1,3.41,21.7,86.53,86.53,0,0,1,0,11,61.82,61.82,0,0,1-1.7,11.35,10.85,10.85,0,0,1-21.31-1.47Z" transform="translate(-28.29 -13.74)"/><path class="cls-6" d="M1579.46,1815.56a49.62,49.62,0,0,1-4.28-9.31,64.91,64.91,0,0,1-2.61-9.37,101,101,0,0,1-2-19.21c-.18-12.85,1.19-25.69,5.21-37.94a1.62,1.62,0,0,1,2-1,1.67,1.67,0,0,1,1,1v0c2.09,6,3.69,12,5.56,17.74,1.69,5.79,3.58,11.46,5.35,17.06s3.86,11,5.48,16.53c.82,2.74,1.67,5.45,2.33,8.2a63.13,63.13,0,0,1,1.74,7.92l.19,1.53a10.84,10.84,0,0,1-20.08,6.84Z" transform="translate(-28.29 -13.74)"/><path class="cls-6" d="M1654.21,1806.53a42.65,42.65,0,0,1-3.49-4.48c-1-1.47-1.9-2.92-2.72-4.44a63.56,63.56,0,0,1-4.24-9.29,88.61,88.61,0,0,1-4.64-19.65,106.9,106.9,0,0,1-.79-20,89.42,89.42,0,0,1,3.21-19.53,1.62,1.62,0,0,1,3.06-.14l0,.07c2.3,6.12,4.15,12,6.42,17.75,2.06,5.75,4.49,11.27,6.83,16.67s5.13,10.56,7.52,15.75c1.2,2.59,2.46,5.13,3.56,7.72.62,1.24,1.13,2.58,1.7,3.81a33.78,33.78,0,0,1,1.35,3.53l.63,2.85a10.66,10.66,0,0,1-18.43,9.35Z" transform="translate(-28.29 -13.74)"/><ellipse class="cls-6" cx="1126.13" cy="803.01" rx="74.06" ry="50.45" transform="translate(164.15 1809.68) rotate(-83.03)"/><ellipse class="cls-4" cx="1140.04" cy="790.97" rx="21.63" ry="14.73" transform="translate(188.32 1812.9) rotate(-83.03)"/><ellipse class="cls-6" cx="1428.25" cy="763.45" rx="50.45" ry="74.06" transform="translate(-168.23 345.32) rotate(-13.67)"/><ellipse class="cls-4" cx="1413.03" cy="753.11" rx="14.73" ry="21.63" transform="translate(-166.21 341.43) rotate(-13.67)"/><path class="cls-12" d="M707.76,849.74s128.6-180.73,194.63-146-13.9,351-13.9,351Z" transform="translate(-28.29 -13.74)"/><path class="cls-12" d="M461.86,807,220.38,935.13s8-70.62,24.12-146.88c18.39-87.09,47.27-181.56,86.75-186.5,37.19-4.62,69.93,47.13,93.36,99.82C447.82,753.81,461.86,807,461.86,807Z" transform="translate(-28.29 -13.74)"/><path class="cls-12" d="M879,1909.61c-285.14-30.23-532.7-186.29-686.08-411.61,6.88-9.59,13.94-19.64,21-30.06,17.62-26,35.42-54.26,51.89-83.8,17.34-31.17,33.23-63.74,45.78-96.48L739,1325.89l22,97.59,33.61,149.18s63.08,63.08,85.33,174C889.29,1793,891.48,1847.71,879,1909.61Z" transform="translate(-28.29 -13.74)"/><g class="cls-9"><path class="cls-6" d="M879,1909.61c-285.14-30.23-532.7-186.29-686.08-411.61,6.88-9.59,13.94-19.64,21-30.06a83.28,83.28,0,0,0,5.25,9.07c25.75,38.06,64.16,67.81,108.09,81.78,41.12,13.07,87.38,13.69,122.79,38.33,36,25.06,53.91,70.63,90.47,95,46.75,31.11,108.27,19,164.22,14.74,7.41-.59,15.33-.87,21.79,2.81,6.23,3.55,9.94,10.15,14,16.06,30,42.89,97.73,52.73,138.64,20.09.28.31.55.59.8.9C889.29,1793,891.48,1847.71,879,1909.61Z" transform="translate(-28.29 -13.74)"/></g><path class="cls-6" d="M879,1923.52c-.49,0-1,0-1.48-.08-282.09-29.92-535.81-182.13-696.1-417.61a13.9,13.9,0,0,1,.2-15.94,1178.17,1178.17,0,0,0,72-112.52c18.44-33.15,33.56-65,44.93-94.69a13.91,13.91,0,0,1,14.22-8.87L740.28,1312a13.89,13.89,0,0,1,12.32,10.79l54.77,243C827,1587.05,933,1712.68,892.6,1912.37A13.92,13.92,0,0,1,879,1923.52ZM209.86,1498.14C363.36,1718.8,602,1862.5,867.68,1894.35c33.2-193.1-81.67-310.67-82.86-311.86a13.91,13.91,0,0,1-3.73-6.78l-53.38-236.87-407-36.41a795.77,795.77,0,0,1-42.75,88.47A1190.14,1190.14,0,0,1,209.86,1498.14Z" transform="translate(-28.29 -13.74)"/><path class="cls-13" d="M761,1423.48c-56,55.79-162.66,84-278.53,66.21-92.28-14.14-170.27-54.35-216.74-105.55,17.34-31.17,33.23-63.74,45.78-96.48L739,1325.89Z" transform="translate(-28.29 -13.74)"/><path class="cls-6" d="M551.85,1509a472.44,472.44,0,0,1-71.45-5.52c-92.37-14.16-174.35-54.24-224.92-110a13.91,13.91,0,0,1-1.86-16.11c18.45-33.16,33.57-65,44.94-94.7a13.91,13.91,0,0,1,14.22-8.87L740.28,1312a13.89,13.89,0,0,1,12.32,10.79l22,97.6a13.88,13.88,0,0,1-3.75,12.9C722,1482,641.75,1509,551.85,1509Zm-269-127c46.8,47.36,119.67,81.42,201.78,94,103.93,15.93,205.26-6.45,261.13-57.1l-18-80-407-36.41A780,780,0,0,1,282.84,1382Z" transform="translate(-28.29 -13.74)"/><circle class="cls-8" cx="467.47" cy="1506.79" r="59.08"/><g class="cls-3"><path class="cls-4" d="M554.84,1520.52a58.39,58.39,0,0,1-4,21.41,59.06,59.06,0,0,0-113.86-16,48.51,48.51,0,0,1-.27-5.43,59.09,59.09,0,0,1,118.17,0Z" transform="translate(-28.29 -13.74)"/></g><g class="cls-9"><path class="cls-6" d="M554.84,1520.52A59.09,59.09,0,1,1,441.53,1497a59.11,59.11,0,0,0,111.39,8.48A59.35,59.35,0,0,1,554.84,1520.52Z" transform="translate(-28.29 -13.74)"/></g><path class="cls-6" d="M495.75,1593.51a73,73,0,1,1,73-73A73.08,73.08,0,0,1,495.75,1593.51Zm0-118.17a45.19,45.19,0,1,0,45.18,45.18A45.23,45.23,0,0,0,495.75,1475.34Z" transform="translate(-28.29 -13.74)"/><path class="cls-12" d="M498.71,1773.93c-4.31,30.83-17.1,58.7-41.19,76.77C374.11,1913.26,327.39,1757,350.75,1677l-41.29-38.71s.76-1,2.26-2.65c9.38-10.42,47.61-47.65,107.57-38.64C468.75,1604.39,509.38,1698,498.71,1773.93Z" transform="translate(-28.29 -13.74)"/><g class="cls-9"><path class="cls-6" d="M498.71,1773.93c-4.31,30.83-17.1,58.7-41.19,76.77C374.11,1913.26,327.39,1757,350.75,1677l-41.29-38.71s.76-1,2.26-2.65c21.55,1,49.32,8.45,74.13,33.86,0,0-22.34,125.19,32.95,143C451.26,1823,480.28,1797.11,498.71,1773.93Z" transform="translate(-28.29 -13.74)"/></g><g class="cls-3"><path class="cls-4" d="M471.46,1837.77c30.62-78.58-14.53-200.43-71.25-209A117.9,117.9,0,0,0,318,1646.34l-8.55-8s40.31-51.75,109.82-41.32C484.5,1606.75,534.41,1766.42,471.46,1837.77Z" transform="translate(-28.29 -13.74)"/></g><path class="cls-6" d="M420.25,1877.66A57.55,57.55,0,0,1,387,1866.9c-45-31.18-64.25-125.35-50.35-185.84l-35.84-33.58a12.6,12.6,0,0,1-1.32-16.93c1.83-2.35,45.71-57.38,121.63-46,36.33,5.45,69.55,47.52,84.62,107.19,14.21,56.3,11,130.28-40.71,169C450.09,1872,434.85,1877.66,420.25,1877.66Zm-93-239.92,32.08,30a12.6,12.6,0,0,1,3.48,12.72c-16.09,55.11,4.07,141.83,38.53,165.7,14.4,10,30.3,8.15,48.6-5.58,41.85-31.38,43.07-96.5,31.39-142.73-12.18-48.27-38.48-84.65-63.94-88.46C372.25,1602.65,341.06,1624.93,327.28,1637.74Z" transform="translate(-28.29 -13.74)"/><path class="cls-12" d="M795.35,1897l-96-24.19s-36.77,68.3-95.86,37c-22.8-12.06-37.53-42.93-42.5-78.65C550.56,1757,582,1661.77,669.53,1670c68.12,6.4,100,90.12,114.49,154A530.68,530.68,0,0,1,795.35,1897Z" transform="translate(-28.29 -13.74)"/><g class="cls-9"><path class="cls-6" d="M795.35,1897l-96-24.19s-36.77,68.3-95.86,37c-22.8-12.06-37.53-42.93-42.5-78.65,1,1.46,32.7,47.09,70.07,46.92,38-.18,78.09-30.31,84.83-65.52,0,0,21.07,52.62,68.09,11.51l0,0A530.68,530.68,0,0,1,795.35,1897Z" transform="translate(-28.29 -13.74)"/></g><g class="cls-3"><path class="cls-4" d="M795.35,1897l-4.45-1.11c-9.77-62.28-39.21-182.4-121.37-190.11-70.14-6.57-104.27,53.21-109.72,115.42-6.33-72.46,26.06-159,109.72-151.19C780.75,1680.4,795.35,1897,795.35,1897Z" transform="translate(-28.29 -13.74)"/></g><path class="cls-6" d="M634.12,1930.61c-11.34,0-23.58-2.85-36.52-9.7-48.6-25.73-61.58-113.64-42.83-176.44,18.07-60.52,60.32-92.23,115.94-87,120.49,11.3,136.56,229.39,137.18,238.67a12.58,12.58,0,0,1-15.63,13.05l-87-21.92C691.85,1907.19,666.64,1930.61,634.12,1930.61Zm25-248.55c-51.46,0-72.28,43-80.24,69.62-17.34,58.07-2.52,129.51,30.49,147,47.19,25,77.64-29.55,78.92-31.89a12.63,12.63,0,0,1,14.14-6.21L781,1880.35c-6.15-49.93-30.69-190.16-112.61-197.84Q663.59,1682.06,659.13,1682.06Z" transform="translate(-28.29 -13.74)"/><path class="cls-6" d="M683.83,1871.56c1.85-2.31,3.92-5.35,5.78-8.16s3.76-5.82,5.51-8.82a188.67,188.67,0,0,0,9.71-18.54c5.67-12.75,10.14-26.3,9.88-41a82.57,82.57,0,0,1,4.22,21.84,143.14,143.14,0,0,1-.66,22.66,205,205,0,0,1-3.69,22.49q-1.2,5.6-2.72,11.15c-1,3.77-2,7.26-3.46,11.35l-.2.56a14.14,14.14,0,0,1-26.64-9.51A14.67,14.67,0,0,1,683.83,1871.56Z" transform="translate(-28.29 -13.74)"/><path class="cls-6" d="M888.49,1068.7a13.92,13.92,0,0,1-10.43-4.71L697.33,858.93a13.9,13.9,0,0,1-.9-17.25c1.34-1.88,33.27-46.58,74-87.74,58.43-59.06,105-80.09,138.44-62.48C930.3,702.74,956.22,736,934,894.25c-11.7,83.19-31.8,163.15-32,164a13.9,13.9,0,0,1-13.48,10.5ZM725.55,848.89l155.6,176.55c6.81-30,17.83-82,25.32-135.26,20.45-145.64-2.9-170.09-10.55-174.12C859.41,696.85,776.8,779.54,725.55,848.89Z" transform="translate(-28.29 -13.74)"/><path class="cls-6" d="M857.21,961A14,14,0,0,1,847,956.47L767,869.58a13.9,13.9,0,0,1-1.33-17.13,534.3,534.3,0,0,1,35.79-47c30.41-35.24,53-48.5,71-41.73,19.81,7.43,23.89,37.59,14.09,104.11-6.11,41.4-15.48,80.79-15.88,82.45A13.91,13.91,0,0,1,857.21,961ZM795,858.89l54.48,59.21c12.8-60.88,18.13-115.45,12.1-128.3C850.62,791.23,820.78,822.21,795,858.89Z" transform="translate(-28.29 -13.74)"/><path class="cls-6" d="M888.49,1068.7a13.92,13.92,0,0,1-10.43-4.71L697.33,858.93a13.9,13.9,0,0,1-.9-17.25c1.34-1.88,33.27-46.58,74-87.74,58.43-59.06,105-80.09,138.44-62.48C930.3,702.74,956.22,736,934,894.25c-11.7,83.19-31.8,163.15-32,164a13.9,13.9,0,0,1-13.48,10.5ZM725.55,848.89l155.6,176.55c6.81-30,17.83-82,25.32-135.26,20.45-145.64-2.9-170.09-10.55-174.12C859.41,696.85,776.8,779.54,725.55,848.89Z" transform="translate(-28.29 -13.74)"/><path class="cls-6" d="M220.4,949a13.9,13.9,0,0,1-13.82-15.47c.1-.81,9.51-82.72,27.92-164.7C269.51,613,305.52,591,329.55,588,367,583.3,403.21,619.41,437,695.28c23.58,52.89,37.69,106,38.28,108.21a13.91,13.91,0,0,1-6.93,15.82L226.91,947.4A13.8,13.8,0,0,1,220.4,949ZM335.84,615.38a22.76,22.76,0,0,0-2.86.18c-8.57,1.07-39.05,15.7-71.31,159.19-11.81,52.52-19.85,105.07-24.05,135.5L445.52,800C422.58,718.91,376.14,615.38,335.84,615.38Z" transform="translate(-28.29 -13.74)"/><path class="cls-6" d="M287.69,859.25A13.89,13.89,0,0,1,273.9,843.6c.21-1.69,5.34-41.85,14.24-82.74,14.29-65.65,28.74-92.44,49.87-92.44h.05c19.27,0,35.71,20.41,51.72,64.11a537.69,537.69,0,0,1,16.91,56.6,13.91,13.91,0,0,1-7.29,15.55L293.94,857.77A14,14,0,0,1,287.69,859.25ZM339,696.75c-10.18,10.09-24.4,62.92-33.88,124.24L377,784.82C365.9,741.67,349,702.38,339,696.75Z" transform="translate(-28.29 -13.74)"/><path class="cls-6" d="M220.4,949a13.9,13.9,0,0,1-13.82-15.47c.1-.81,9.51-82.72,27.92-164.7C269.51,613,305.52,591,329.55,588,367,583.3,403.21,619.41,437,695.28c23.58,52.89,37.69,106,38.28,108.21a13.91,13.91,0,0,1-6.93,15.82L226.91,947.4A13.8,13.8,0,0,1,220.4,949ZM335.84,615.38a22.76,22.76,0,0,0-2.86.18c-8.57,1.07-39.05,15.7-71.31,159.19-11.81,52.52-19.85,105.07-24.05,135.5L445.52,800C422.58,718.91,376.14,615.38,335.84,615.38Z" transform="translate(-28.29 -13.74)"/><path class="cls-14" d="M777.27,860.16s62.56-93.84,90.37-83.41-10.43,170.3-10.43,170.3Z" transform="translate(-28.29 -13.74)"/><path class="cls-14" d="M393.14,792.26S367.73,682.38,338,682.32s-50.34,163-50.34,163Z" transform="translate(-28.29 -13.74)"/><path class="cls-6" d="M857.21,956a9,9,0,0,1-6.62-2.9l-79.93-86.89a9,9,0,0,1-.87-11.07c15.61-23.41,69-98.84,101-86.85,12,4.48,22.61,19.73,11,98.79-6.07,41.19-15.7,81.62-15.79,82a9,9,0,0,1-6.48,6.61A8.78,8.78,0,0,1,857.21,956Zm-68.5-96.72,63.49,69c3.18-14.78,7.79-37.6,11.33-61,11.2-74,.92-82.18.81-82.26C852.61,780.68,816.11,819.65,788.71,859.32Z" transform="translate(-28.29 -13.74)"/><path class="cls-6" d="M287.69,854.34a9,9,0,0,1-8.92-10.12c.05-.41,5.31-41.64,14.17-82.32,17-78,32.3-88.57,45.06-88.57h.05c34.17.07,57.51,89.49,63.86,116.9a9,9,0,0,1-4.72,10.06L291.73,853.38A9,9,0,0,1,287.69,854.34Zm50.32-163s-12.49,4.1-28.11,77.25c-4.93,23.1-8.67,46.08-10.91,61l83.75-42.16C371.09,740.65,350.67,691.34,338,691.31Z" transform="translate(-28.29 -13.74)"/><g class="cls-9"><path class="cls-6" d="M461.86,807,220.38,935.13s8-70.62,24.12-146.88c43-31.66,112.09-75.24,180.11-86.68C447.82,753.81,461.86,807,461.86,807Z" transform="translate(-28.29 -13.74)"/></g><g class="cls-9"><path class="cls-6" d="M713,839.69,895,1043.6s17-69,28.31-146.12C894,852.88,844.3,788,784.47,753.71,744.58,794.66,713,839.69,713,839.69Z" transform="translate(-28.29 -13.74)"/></g><path class="cls-12" d="M912.23,1175.34C881,1386.1,695,1462.84,484.2,1431.57S117.74,1272.86,149,1062.1s227.47-356.26,438.23-325S943.5,964.58,912.23,1175.34Z" transform="translate(-28.29 -13.74)"/><g class="cls-3"><path class="cls-4" d="M905.59,1174.29c-1,6.53-2.08,13-3.37,19.25C922.1,990.25,779.12,805,574.82,774.66A387.23,387.23,0,0,0,484,771.92v0c1.08,9.84-14.29,19.61-34.34,21.79-16.44,1.81-30.9-2-36.15-8.86-135.58,38.23-244.26,149.56-273.49,295,.59-6.22,1.39-12.51,2.33-18.87,31.24-210.73,227.44-356.25,438.2-325S936.87,963.53,905.59,1174.29Z" transform="translate(-28.29 -13.74)"/></g><g class="cls-9"><path class="cls-6" d="M921.77,1176.39c-31.24,210.76-217.26,287.5-428,256.26-202.59-30.07-354.3-149-338-345.34,14.08,163.18,155.36,262.51,338,289.62,210.76,31.25,396.78-45.49,428-256.25,1.46-9.73,2.5-19.43,3.23-29.09A387.08,387.08,0,0,1,921.77,1176.39Z" transform="translate(-28.29 -13.74)"/></g><path class="cls-6" d="M572.81,1452.25a618.51,618.51,0,0,1-90.65-6.93C370,1428.69,278,1386.7,216,1323.91c-68.16-69-96.07-160.24-80.69-263.85,32.34-218,236-369,454-336.71s369.05,236,336.7,454h0c-15.37,103.61-68.56,182.82-153.83,229C716.16,1436.8,648.35,1452.25,572.81,1452.25ZM530.38,746.8c-181.13,0-340.26,132.91-367.62,317.34C130,1284.67,308.41,1391.43,486.24,1417.82s379.52-24,412.24-244.52C928.57,970.46,788,781,585.2,750.86A373.79,373.79,0,0,0,530.38,746.8Zm381.85,428.54h0Z" transform="translate(-28.29 -13.74)"/><path class="cls-6" d="M502.28,1097.9l63.25,5.26a8.27,8.27,0,0,1,5,14.29l-35.22,32.84a8.27,8.27,0,0,1-12.3-1.15l-28-38.09A8.27,8.27,0,0,1,502.28,1097.9Z" transform="translate(-28.29 -13.74)"/><path class="cls-6" d="M395.46,1128.6a208.73,208.73,0,0,0,12.05,23.15,111.75,111.75,0,0,0,13.27,17.66,74.91,74.91,0,0,0,16.36,13.77,45.84,45.84,0,0,0,20.76,6.41h2.28l2.92-.06a39.69,39.69,0,0,0,5.52-.55,51.23,51.23,0,0,0,10.38-2.75,71.39,71.39,0,0,0,18.46-10.52,92,92,0,0,0,15.38-15.43c4.95-5.84,9.86-12.17,16.54-20.4l.06-.07a2.74,2.74,0,0,1,3.85-.41,2.93,2.93,0,0,1,.71.87c5.13,9.91,5,21.42,1.56,31.75-3.58,10.32-10.29,19.52-18.51,26.91a73.59,73.59,0,0,1-29,15.66,82.07,82.07,0,0,1-16.25,2.89,65.57,65.57,0,0,1-8.09.29l-3.9-.12-2-.05-2.51-.17a98.64,98.64,0,0,1-31.37-8.6,72.23,72.23,0,0,1-26.06-20,61.84,61.84,0,0,1-13-29.83c-1.39-10.72.25-21.78,6-30.76a2.63,2.63,0,0,1,3.62-.79,2.56,2.56,0,0,1,1,1.11Z" transform="translate(-28.29 -13.74)"/><path class="cls-6" d="M534,1140.28a205.66,205.66,0,0,0,11.86,22.82,112.52,112.52,0,0,0,13,17.46,77,77,0,0,0,15.95,13.71,45.55,45.55,0,0,0,20.11,6.79l1.08.16a.17.17,0,0,1,.17,0l1.42,0,2.85,0a41.84,41.84,0,0,0,5.54-.43,51.14,51.14,0,0,0,10.62-2.58,70.18,70.18,0,0,0,18.87-10.47,90.91,90.91,0,0,0,15.69-15.57c5-5.92,10-12.32,16.77-20.68l.06-.07a2.73,2.73,0,0,1,3.85-.4,2.61,2.61,0,0,1,.7.86c5.22,10.07,5,21.78,1.39,32.24s-10.66,19.72-19.11,27.11a74.22,74.22,0,0,1-29.74,15.4,84.77,84.77,0,0,1-16.55,2.62,67.69,67.69,0,0,1-8.29.12l-4.08-.2-2-.1c-1.07-.11-2.19-.26-3.27-.43l1.08.16a98.36,98.36,0,0,1-30.88-9,71,71,0,0,1-25.31-20.16,61.58,61.58,0,0,1-12.41-29.5c-1.26-10.56.4-21.42,6.06-30.25a2.62,2.62,0,0,1,3.62-.79,2.66,2.66,0,0,1,1,1.1Z" transform="translate(-28.29 -13.74)"/><path class="cls-6" d="M515.3,1363.61a46.7,46.7,0,0,1-5-.26c-26.55-2.72-48.25-26.57-59.55-65.45-7.68-26.44-10-57.48-6.7-89.78.22-2.11.44-4.13.69-6.2a13.88,13.88,0,0,1,14.6-12.18,55.27,55.27,0,0,0,58.5-50.75.22.22,0,0,1,0-.08,13.9,13.9,0,0,1,27.7,2.34v.08a55.16,55.16,0,0,0,49.37,59.8,13.89,13.89,0,0,1,12.38,14.7c-.18,2.91-.44,5.85-.74,8.83-3.25,32-11.69,61.78-24.42,86.07C564.36,1344.63,540.24,1363.61,515.3,1363.61Zm-44.16-146.39c-2,26.19.19,51.88,6.3,72.92,7.86,27,21.2,44.07,35.68,45.55s31.17-12.67,44.38-37.87c10.38-19.8,17.75-45.08,20.91-71.61a82.61,82.61,0,0,1-50.63-39.86A82.67,82.67,0,0,1,471.14,1217.22Z" transform="translate(-28.29 -13.74)"/><path class="cls-6" d="M515.3,1363.61a46.7,46.7,0,0,1-5-.26c-26.55-2.72-48.25-26.57-59.55-65.45a13.9,13.9,0,0,1,1-10.35,71.25,71.25,0,0,1,131.36,12.77,13.9,13.9,0,0,1-1,10.41C564.36,1344.63,540.24,1363.61,515.3,1363.61Zm-36.08-67.78c8,23.72,20.46,38.49,33.9,39.86s28.79-10.71,41.48-32.6a43.46,43.46,0,0,0-75.38-7.26Z" transform="translate(-28.29 -13.74)"/><path class="cls-6" d="M572.81,1452.25a618.51,618.51,0,0,1-90.65-6.93C370,1428.69,278,1386.7,216,1323.91c-68.16-69-96.07-160.24-80.69-263.85,32.34-218,236-369,454-336.71s369.05,236,336.7,454h0c-15.37,103.61-68.56,182.82-153.83,229C716.16,1436.8,648.35,1452.25,572.81,1452.25ZM530.38,746.8c-181.13,0-340.26,132.91-367.62,317.34C130,1284.67,308.41,1391.43,486.24,1417.82s379.52-24,412.24-244.52C928.57,970.46,788,781,585.2,750.86A373.79,373.79,0,0,0,530.38,746.8Zm381.85,428.54h0Z" transform="translate(-28.29 -13.74)"/><path class="cls-6" d="M502.28,1097.9l63.25,5.26a8.27,8.27,0,0,1,5,14.29l-35.22,32.84a8.27,8.27,0,0,1-12.3-1.15l-28-38.09A8.27,8.27,0,0,1,502.28,1097.9Z" transform="translate(-28.29 -13.74)"/><path class="cls-6" d="M593.41,1215c-.17,2.75-.41,5.53-.69,8.34-3.16,31.14-11.5,59.23-22.9,81-15.51,29.58-36.67,47.44-58.12,45.25s-38.37-23.7-47.61-55.5c-6.88-23.7-9.42-53.11-6.22-84.49.21-2,.41-3.93.66-5.91a69.45,69.45,0,0,0,73.16-63.53A69.38,69.38,0,0,0,593.41,1215Z" transform="translate(-28.29 -13.74)"/><path class="cls-11" d="M569.82,1304.27c-15.51,29.58-36.67,47.44-58.12,45.25s-38.37-23.7-47.61-55.5a57.35,57.35,0,0,1,105.73,10.25Z" transform="translate(-28.29 -13.74)"/><path class="cls-6" d="M515.3,1363.61a46.7,46.7,0,0,1-5-.26c-26.55-2.72-48.25-26.57-59.55-65.45-7.68-26.44-10-57.48-6.7-89.78.22-2.11.44-4.13.69-6.2a13.88,13.88,0,0,1,14.6-12.18,55.27,55.27,0,0,0,58.5-50.75.22.22,0,0,1,0-.08,13.9,13.9,0,0,1,27.7,2.34v.08a55.16,55.16,0,0,0,49.37,59.8,13.89,13.89,0,0,1,12.38,14.7c-.18,2.91-.44,5.85-.74,8.83-3.25,32-11.69,61.78-24.42,86.07C564.36,1344.63,540.24,1363.61,515.3,1363.61Zm-44.16-146.39c-2,26.19.19,51.88,6.3,72.92,7.86,27,21.2,44.07,35.68,45.55s31.17-12.67,44.38-37.87c10.38-19.8,17.75-45.08,20.91-71.61a82.61,82.61,0,0,1-50.63-39.86A82.67,82.67,0,0,1,471.14,1217.22Z" transform="translate(-28.29 -13.74)"/><path class="cls-6" d="M214.23,1096.5c-11.18-2.33-21.57-5.1-31.9-7.81s-20.45-5.38-30.57-7.89-20.27-4.6-30.56-6.69-20.75-3.31-32.09-5.41a81.73,81.73,0,0,1,33-8.22,117.82,117.82,0,0,1,33.81,3.45A136.07,136.07,0,0,1,187.38,1076C197.22,1081.45,206.6,1087.9,214.23,1096.5Z" transform="translate(-28.29 -13.74)"/><path class="cls-6" d="M215.89,1176c-11.39.84-22.15,1-32.83,1.27s-21.13.47-31.55.84-20.75,1.15-31.22,2-20.86,2.53-32.34,3.63a81.81,81.81,0,0,1,29.43-17,117.72,117.72,0,0,1,33.46-6,135.59,135.59,0,0,1,33.6,3C195.39,1166.23,206.18,1169.85,215.89,1176Z" transform="translate(-28.29 -13.74)"/><path class="cls-6" d="M244,1247.71c-10.09,5.36-19.85,9.88-29.53,14.39s-19.15,8.94-28.54,13.49S167.39,1285,158.15,1290s-18.08,10.72-28.14,16.36a81.86,81.86,0,0,1,20.09-27.41,118.29,118.29,0,0,1,28.21-19,136,136,0,0,1,32-10.82C221.29,1247,232.62,1246,244,1247.71Z" transform="translate(-28.29 -13.74)"/><path class="cls-6" d="M852.85,1154.59c10-5.64,21-8.68,32-10.58a135.35,135.35,0,0,1,33.72-1.18,117.73,117.73,0,0,1,33.09,7.76,81.67,81.67,0,0,1,28.49,18.52c-11.41-1.71-21.62-4-32.1-5.34s-20.65-2.82-31.07-3.64-20.84-1.75-31.47-2.52S864.18,1156,852.85,1154.59Z" transform="translate(-28.29 -13.74)"/><path class="cls-6" d="M825.35,1229.23c11.19-2.67,22.57-2.57,33.73-1.36a136.33,136.33,0,0,1,32.74,8.15,118.11,118.11,0,0,1,29.68,16.57,81.87,81.87,0,0,1,22.28,25.65c-10.49-4.78-19.69-9.78-29.39-14s-19.07-8.39-28.86-12.06S866,1244.8,856,1241.13,835.85,1233.73,825.35,1229.23Z" transform="translate(-28.29 -13.74)"/><path class="cls-6" d="M775.41,1287.83c11.31,2.07,21.69,6.74,31.41,12.36a135.87,135.87,0,0,1,26.68,20.65A117.48,117.48,0,0,1,854,1348,81.91,81.91,0,0,1,864,1380.42c-7.67-8.61-14.08-16.89-21.26-24.63s-14.08-15.37-21.56-22.67-14.91-14.66-22.59-22S783.2,1296.18,775.41,1287.83Z" transform="translate(-28.29 -13.74)"/><path class="cls-6" d="M598.61,1915.38c-.67-1.1-.92-1.53-1.29-2.22s-.62-1.24-.9-1.87c-.49-1.23-1-2.45-1.33-3.66a42.42,42.42,0,0,1-1.48-7.32A57.74,57.74,0,0,1,594,1886a81.55,81.55,0,0,1,3.07-13.69,70.33,70.33,0,0,1,5.52-12.82,1.37,1.37,0,0,1,1.87-.52,1.38,1.38,0,0,1,.66.86v0c.56,2.28,1,4.5,1.38,6.7s.81,4.36,1.24,6.5c.82,4.27,1.56,8.44,2.46,12.48l2.69,11.71c.44,1.86.81,3.72,1.17,5.5l.48,2.63c.08.4.12.85.19,1.22s.16.92,0,.8a9,9,0,1,1-16.1,8Z" transform="translate(-28.29 -13.74)"/><path class="cls-6" d="M646.5,1916.29a41.76,41.76,0,0,1-3.41-14.43,69.74,69.74,0,0,1,.58-14.3,81,81,0,0,1,8.21-27.18,1.37,1.37,0,0,1,2.54.3v0c1.15,4.63,1.9,9.08,2.84,13.46s1.76,8.65,2.6,12.87,1.93,8.34,2.62,12.44a70,70,0,0,1,1.32,11.94l0,1.31a9,9,0,0,1-17.29,3.55Z" transform="translate(-28.29 -13.74)"/><path class="cls-6" d="M371.42,1830.57c-.59.31-.15-.22-.11-.4l.51-1c.4-.65.78-1.42,1.24-2.13.84-1.55,1.8-3.11,2.74-4.8,1.84-3.38,4-6.89,5.89-10.71s3.83-7.74,5.77-11.81c.94-2,1.89-4.11,2.92-6.19s2-4.21,3.14-6.33l0,0a1.37,1.37,0,0,1,2.53.34,78.4,78.4,0,0,1,1.9,14.28,83.5,83.5,0,0,1-.78,14.51,54,54,0,0,1-3.88,14.56,37.84,37.84,0,0,1-3.92,7,32.33,32.33,0,0,1-2.76,3.34c-.49.54-1.13,1.09-1.7,1.62a27,27,0,0,1-2.55,2,9,9,0,0,1-11-14.26Z" transform="translate(-28.29 -13.74)"/><path class="cls-6" d="M411.15,1857.06c-.57.16,0-.3.14-.53l.81-.94,1.84-2.16c1.25-1.55,2.57-3.17,3.88-4.92,2.57-3.5,5.38-7.25,7.84-11.4s4.9-8.5,7.3-13l3.54-6.91c1.13-2.36,2.34-4.73,3.68-7.11l0,0a1.34,1.34,0,0,1,2.5.49c.35,2.71.57,5.43.7,8.17s0,5.45-.11,8.21a87.77,87.77,0,0,1-2.68,16.44,56.94,56.94,0,0,1-6.63,16.09,39.93,39.93,0,0,1-5.7,7.32,33.12,33.12,0,0,1-3.72,3.28c-.7.52-1.45,1-2.22,1.49a26.78,26.78,0,0,1-3.12,1.61,9,9,0,0,1-8.08-16.07Z" transform="translate(-28.29 -13.74)"/><ellipse class="cls-6" cx="404.35" cy="1019.49" rx="69.53" ry="47.36" transform="translate(-716.03 1106.68) rotate(-73.65)"/><ellipse class="cls-4" cx="419.08" cy="1010.47" rx="20.31" ry="13.83" transform="translate(-696.8 1114.32) rotate(-73.64)"/><path class="cls-6" d="M731.75,1027.52a227.45,227.45,0,0,0-26.55,5,159.36,159.36,0,0,0-24.65,8.47c-3.95,1.62-7.63,3.71-11.37,5.61l-5.35,3.3a46.88,46.88,0,0,0-5.17,3.5c-6.95,4.65-12.8,10.63-18.59,16.69l-12.4-19.07a53.4,53.4,0,0,1,6.77-1.22c2.11-.3,4.18-.45,6.25-.61a100.08,100.08,0,0,1,12.37,0,92.06,92.06,0,0,1,24,4.76c7.66,2.76,15.11,6.13,21.61,10.88,6.71,4.37,12.36,10.1,17.34,16a4.1,4.1,0,0,1-5,6.31l-.44-.22c-3.26-1.62-6.22-3.53-9.4-5s-6.25-3-9.51-4.12a90.75,90.75,0,0,0-19.43-5.21,93.71,93.71,0,0,0-19.69-1.25c-3.27.11-6.52.44-9.72.83-1.58.25-3.18.47-4.71.8-.78.13-1.51.32-2.25.49l-1,.25-.76.21-.3.08a11.86,11.86,0,0,1-12.1-19.15c6.77-7.94,14.13-15.66,23-21.43,4.18-3.22,9-5.45,13.55-8,4.81-2,9.55-4.26,14.56-5.61A106.82,106.82,0,0,1,703,1015.1c10.17,0,20.05,1.06,29.89,4.37a4.12,4.12,0,0,1-.75,8Z" transform="translate(-28.29 -13.74)"/></svg>